<svg id="Capa_2" data-name="Capa 2" xmlns="http://www.w3.org/2000/svg" viewBox="0 0 413.02 419.55"><defs><style>.cls-1{fill:#cc212a;}</style></defs><path class="cls-1" d="M361.52,165.64c5.14-1,10.27,6.68,18.49,5.14s10.46-21.59,20.55-23.12A19.27,19.27,0,0,1,417,153.31s-6.17-14.38-15.41-12.84S386.69,157.42,379.5,162s-27.23-9.24-27.23-9.24,2.57-11.3,7.19-13.87,8.74,13.35,20.55,11.3,10.27-16.44,10.27-16.44-2.56,8.22-9.76,9.76-18-23.11-26.19-20.55-5.14,19.52-11.82,23.12-19.52-3.6-19.52-3.6,1.54-13.35,6.17-17,11.3,1,19.52-4.11S352.79,105,352.79,105a43,43,0,0,1-5.14,10.27c-3.08,4.11-10.79,0-10.79,0s2.57-12.33,9.25-13.87,13.35,4.11,22.6,1S376.42,90,376.42,90a13,13,0,0,1-9.76,8.37C359,99.89,346.11,84.48,334,87.56s-14.08,18-14.08,18-3.08-2.57-2.57-5.65S322.48,90,322.48,90s-8.22,2.2-10.79,7.34,3.6,10.27-2.57,10.79-7.7-6.68-6.67-12.84,11.81-7.71,18-14.9,1-17,1-17-3.59,18-11.81,17.46S299.36,69.07,303,62.39s15.92-5.14,22.62-12.33,0-23.11,0-23.11.51,13.87-3.59,18.62-23.63.38-29.8,6.55,3.6,14.38,5.14,22.6-1,13.87-7.1,12.33-2.15-17.47-2.15-17.47S282.93,77.29,281.9,84c-4.11-4.1-8.22-13.86-7.19-19.52s11.81-12.32,14.89-19S282.93,30,282.93,30s4.62,10.27,0,15.41-20.55,1-25.69,11.3,3.6,30.31,3.6,30.31-6.68-7.19-9.25-12.73-.51-18.61,1-24.26,11.81-8.22,11.81-8.22-7.19-1.54-12.32.52-6.17,8.22-6.17,8.22a21.34,21.34,0,0,1-2.57-11.5c.52-6.37,6.17-6,12.33-15.22s-5.14-20-5.14-20,5.14,20-6.16,21.06-6.61-10.79-6.61-10.79a16.51,16.51,0,0,0-7.26,12.33c-.51,8.22,9.76,18.5,6.68,30.82S220.77,68,220.77,68s7.19-7.7,7.71-13.87-8.22-11.3-11.3-15.41S220.3,27,220.3,27a26.89,26.89,0,0,0-11,6.16c-4.75,4.62,3.21,9.76,6.81,13.87s7.19,8.73,0,11.3-6.17-8.22-6.81-11.81-10.14-4.83-10.14-4.83,6.16,4.83,6.67,14.59-6.16,18.09-6.16,18.09-12.84-10.39-13.87-15.53,5.14-13.86,5.65-17.15,0-10.58-10.79-18.8c6.68,7.7,4.11,21.06,0,24.14S172.49,43.9,163.24,49c7.19-4.1,13.87,6.68,14.9,11.82s.51,11.81-8.74,13.35-12.32-12.84-13.35-21.06,10.27-12.32,8.22-27.22S141.15,9,141.15,9s14.9,7.7,12.33,17.46-8.73,18.5-12.33,17,0-14.38,0-14.38-9.76,6.17-7.19,12.33,12.84,11.3,13.87,17.46-2.06,17.47-2.06,17.47-6.16-2.57-9.24-7.71,2.57-11.81,0-15.92-15.93-3.08-15.93-3.08,11.82,10.27,9.76,13.35-7.7-1.54-12.84-8.73S115,37.73,115,37.73s-6.16,11.3-4.11,18,15.93,16.44,10.79,20-9.24-11.82-9.24-11.82-2.06,8.73,1,13.87,12.33,5.65,18,9.76,8.19,12.72,8.19,12.72-18.49-.51-25.17-1.54-5.65-15.92-10.27-29.28-22.6-7.19-22.6-7.19S94.9,64.84,98,71.3s-6.17,18.19-4.63,25.9,10.28,14.9,10.28,14.9S88.73,105.42,87,101.82s-2.87-13.89-2.87-13.89S80,92.58,81,98.74,87,110,87,110s-9-.51-13.66-4.62.51-17-5.65-27.74-23.12-4.62-23.12-4.62a39.53,39.53,0,0,1,14.9,6.67c6.68,5.14,0,21.07,0,28.26s4.62,11.3,21.58,18.49c-3.09,1-13.87,0-13.87,0a45.55,45.55,0,0,0,12.32,7.19,50.66,50.66,0,0,0,16.44,3.08s-9.24,5.14-14.38,6.17-11.82-4.11-22.09-5.65-8.73,3.08-15.92,4.62-21.06-11.3-21.06-11.3,1.54,11.3,7.7,14.89,16.44-.51,24.14,0,9.25,1.55,18.5,12.33c-8.74-9.76-22.09-5.12-22.09-5.12s13.35,3.58,16.44,7.69,1.54,11.82-7.71,12.33-11.81-11.81-20.55-18-20,3.6-20,3.6H29.14c6.68,0,8.74,6.16,10.28,12.84S42,179.39,52.26,185c-6.16,1-7.19,9.24-7.19,9.24s9.76-7.7,18-3.59S68.7,202,61,204.56s-16.44-5.65-27.22-4.63-11.3,12.65-11.3,12.65,6.67-7,11.3-7S46.1,211.75,43,218.94,26.06,221,16.3,225.1s-5.65,19.52-5.65,19.52S17.33,230.24,24,230.55s14.38.21,15.41,8.42-10.28,7.2-10.28,7.2,4.11,6.16,8.74,5.13,7.19-6.68,13.35-14.38,19.52-9.25,22.09,0-9.25,11.81-16.44,12.33c4.63,5.13,12.84,4.11,12.84,4.11s-5.13,7.19-10.27,8.22S49.18,254.9,41,256.44,30.5,278,20.41,279.55A19.27,19.27,0,0,1,4,273.9s6.17,14.39,15.41,12.85,14.9-17,22.09-21.58,27.23,9.25,27.23,9.25-2.57,11.3-7.19,13.87S52.77,274.93,41,277s-10.27,16.43-10.27,16.43,2.56-8.22,9.76-9.76,18,23.12,26.19,20.55,5.14-19.52,11.82-23.11S98,284.69,98,284.69s-1.54,13.36-6.17,16.95-11.3-1-19.52,4.11-4.11,16.44-4.11,16.44a43,43,0,0,1,5.14-10.27c3.08-4.11,10.79,0,10.79,0s-2.57,12.32-9.25,13.87-13.35-4.11-22.6-1-7.71,12.48-7.71,12.48a13,13,0,0,1,9.76-8.37C62,327.33,74.86,342.74,87,339.65s14.08-18,14.08-18,3.08,2.56,2.57,5.65-5.14,9.91-5.14,9.91,8.22-2.21,10.79-7.35-3.6-10.27,2.57-10.78,7.7,6.68,6.67,12.84-11.81,7.7-18,14.9-1,16.95-1,16.95,3.59-18,11.81-17.47,10.28,11.82,6.68,18.49S102.09,370,95.39,377.15s0,23.12,0,23.12S94.9,386.4,99,381.65s23.63-.39,29.8-6.55-3.6-14.38-5.14-22.6,1-13.87,7.1-12.33,2.15,17.46,2.15,17.46,5.13-7.7,6.16-14.38c4.11,4.11,8.22,13.87,7.19,19.52s-11.81,12.33-14.89,19S138,397.19,138,397.19s-4.62-10.28,0-15.41,20.55-1,25.69-11.3-3.6-30.31-3.6-30.31,6.68,7.19,9.25,12.73.51,18.6-1,24.25-11.81,8.22-11.81,8.22,7.19,1.54,12.32-.51,6.17-8.22,6.17-8.22a21.34,21.34,0,0,1,2.57,11.5c-.52,6.36-6.17,6-12.33,15.21s5.14,20,5.14,20-5.14-20,6.16-21.06,6.61,10.79,6.61,10.79a16.51,16.51,0,0,0,7.26-12.33c.51-8.22-9.76-18.49-6.68-30.82s16.44-10.79,16.44-10.79S193,366.88,192.49,373s8.22,11.3,11.3,15.41-3.12,11.82-3.12,11.82a26.84,26.84,0,0,0,11-6.17c4.75-4.62-3.21-9.76-6.81-13.87s-7.19-8.73,0-11.3,6.17,8.22,6.81,11.82,10.14,4.82,10.14,4.82-6.16-4.82-6.67-14.58,6.16-18.09,6.16-18.09,12.84,10.38,13.87,15.52-5.14,13.87-5.65,17.15,0,10.59,10.79,18.81c-6.68-7.71-4.11-21.06,0-24.15s8.21,3.09,17.46-2.05c-7.19,4.11-13.87-6.68-14.9-11.81s-.51-11.82,8.74-13.36,12.32,12.84,13.35,21.06-10.27,12.33-8.22,27.23,23.12,16.95,23.12,16.95-14.9-7.71-12.33-17.47,8.73-18.49,12.33-16.95,0,14.38,0,14.38,9.76-6.16,7.19-12.32-12.84-11.31-13.87-17.47S275.2,351,275.2,351s7.21,2.68,8.75,8.85-2.05,9.24,1,13.35,15.41,3.09,15.41,3.09-11.81-6.17-9.76-10.28,11.3,2.06,13.36,6.68,2.57,15.92,2.57,15.92,7.19-9.24,3.59-17.46-12.84-15.92-10.27-19.52,8.73,8.73,8.73,8.73,2.57-6.68-1.54-11.3-15.41-4.11-19-7.19-6.67-14.9-6.67-14.9,18.49.52,25.17,1.54,5.65,15.93,10.27,29.28,22.6,7.2,22.6,7.2-13.36-2.57-16.44-9,6.17-18.19,4.63-25.89-10.28-14.9-10.28-14.9,14.9,6.68,16.65,10.27,2.87,13.89,2.87,13.89a14.14,14.14,0,0,0,3.08-10.81c-1-6.16-5.95-11.3-5.95-11.3s9,.52,13.66,4.63-.51,16.95,5.65,27.74,23.12,4.62,23.12,4.62a39.45,39.45,0,0,1-14.9-6.68c-6.68-5.14,0-21.06,0-28.25s-4.62-11.3-21.58-18.49c3.09-1,13.87,0,13.87,0a45.71,45.71,0,0,0-12.32-7.2,50.66,50.66,0,0,0-16.44-3.08s9.24-5.13,14.38-6.16,11.82,4.11,22.09,5.65,8.73-3.08,15.92-4.62,21.06,11.3,21.06,11.3-1.54-11.3-7.7-14.9-16.44.51-24.14,0-9.25-1.54-18.5-12.33c8.74,9.76,22.09,5.13,22.09,5.13s-13.35-3.59-16.44-7.7-1.54-11.81,7.71-12.32,11.81,11.81,20.55,18,20-3.59,20-3.59H391.83c-6.68,0-8.74-6.17-10.28-12.84s-2.57-8.22-12.84-13.87c6.16-1,7.19-9.25,7.19-9.25s-9.76,7.71-18,3.6-5.65-11.3,2.06-13.87,16.44,5.65,27.22,4.62,11.3-12.65,11.3-12.65-6.67,7-11.3,7-12.33-6.16-9.24-13.36,17-2.05,26.71-6.16,5.65-19.52,5.65-19.52S403.64,197,397,196.67s-14.38-.21-15.41-8.43,10.28-7.19,10.28-7.19-4.11-6.16-8.74-5.14-7.19,6.68-13.35,14.39-19.52,9.24-22.09,0,9.25-11.82,16.44-12.33c-4.63-5.14-12.84-4.11-12.84-4.11S356.38,166.67,361.52,165.64ZM209.59,343.48c-70.85,0-128.29-58.55-128.29-130.79S138.74,81.91,209.59,81.91s128.3,58.55,128.3,130.78S280.45,343.48,209.59,343.48Z" transform="translate(-3.97 -3.83)"/></svg>